<?xml version="1.0" encoding="UTF-8"?><svg id="Layer_2" xmlns="http://www.w3.org/2000/svg" viewBox="0 0 248 142.67"><defs><style>.cls-1{fill:#010101;}</style></defs><g id="Layer_3"><g><path class="cls-1" d="M40.69,0h27.82s12.9,68.25,12.9,68.25L95.32,0h26.81s2.03,117.37,2.03,117.37h-18.4s-2.17-78.1-2.17-78.1l-13.62,78.1h-16.37s-14.49-78.68-14.49-78.68l-1.74,78.68h-18.69S40.69,0,40.69,0Z"/><path class="cls-1" d="M127.33,90.85v-30.72c0-17.97,11.01-27.97,29.12-27.97,18.55,0,27.82,9.71,27.82,27.97v16.81h-33.62v16.08c0,6.52,2.32,8.98,5.8,8.98s6.09-2.03,6.09-8.11v-8.84h21.73s0,8.11,0,8.11c0,16.95-10.43,25.65-27.82,25.65-18.26,0-29.12-10.14-29.12-27.96Zm35.21-24.92v-8.4c0-6.66-2.61-8.55-6.23-8.55-3.48,0-5.65,2.17-5.65,9.85v7.1s11.88,0,11.88,0Z"/><path class="cls-1" d="M187.45,93.02V58.39c0-15.5,6.52-26.23,19.42-26.23,6.23,0,11.88,2.61,16.52,6.67V0h23.62s0,117.37,0,117.37h-23.62s0-6.52,0-6.52c-5.22,5.07-10.87,7.97-16.52,7.97-12.46,0-19.42-8.69-19.42-25.79Zm35.93,8.55V48.69c-1.88-1.01-4.2-1.88-6.09-1.88-4.35,0-6.09,4.06-6.09,9.13v38.54c0,5.22,1.59,9.27,5.94,9.27,1.59,0,3.91-.72,6.23-2.17Z"/><g><path class="cls-1" d="M34.18,112c-6.67,0-9.13-2.17-9.13-8.11V46.22c-10.29,1.16-18.26,1.88-24.05,2.32v5.51c1.01,0,2.03-.14,2.9-.14,6.96,0,9.56,2.17,9.56,8.26v41.73c0,6.09-2.61,8.11-9.42,8.11H1.87v5.36H35.49v-5.36h-1.3Z"/><path class="cls-1" d="M16.71,26.22c.03,.21,.06,.42,.1,.63,.11,.72,.22,1.47,.43,2.19,.71,2.39,2.22,3.84,4.51,4.31,.49,.1,1,.15,1.51,.15,.91,0,1.84-.15,2.85-.47,2.35-.73,4.3-2.22,5.81-4.42,2.66-3.88,3.73-8.26,3.18-13-.52-4.5-2.6-8.24-6.18-11.11-3.1-2.49-6.64-3.76-10.52-3.76-.96,0-1.96,.08-2.96,.23-1.58,.24-3.17,.76-4.73,1.55-.63,.32-.97,.97-.87,1.66,.1,.72,.65,1.27,1.34,1.34,.05,0,.11,0,.17,0,.3,0,.62-.07,.9-.21,1.97-.93,3.95-1.4,5.9-1.4,.49,0,.98,.03,1.47,.09,5.4,.64,9.19,3.4,11.26,8.21,2.11,4.91,1.54,9.85-1.69,14.7-1.27,1.91-3.03,3.05-5.22,3.39-.27,.04-.53,.06-.77,.06-.78,0-1.39-.22-1.85-.66-.9-.86-1.38-2.03-1.43-3.49,3.95-.72,6.92-4.1,7.06-8.06,.07-1.87,.05-3.77,.03-5.6,0-.66-.01-1.32-.01-1.98,0-.87-.69-1.56-1.57-1.57-.6,0-1.21,0-1.81,0s-1.19,0-1.78,0c-.89,0-1.58,.72-1.58,1.61,0,.87,.71,1.57,1.6,1.59,.27,0,.54,0,.81,0h.52s.51,0,.51,0h.11v5.31s0,.13,0,.13c0,.14,0,.28-.01,.42-.04,.33-.07,.6-.13,.87-.55,2.46-2.81,4.24-5.39,4.24-.09,0-.18,0-.26,0-2.61-.12-4.88-2.22-5.08-4.68-.12-1.52-.11-3.08-.09-4.59,0-.56,.01-1.12,.01-1.69h.28s.67,0,.67,0h.86c.51,0,.97-.18,1.28-.5,.29-.29,.44-.69,.44-1.12-.01-.91-.74-1.57-1.72-1.58h-1.61s-1.68,0-1.68,0c-1.09,0-1.74,.66-1.74,1.75v1.44c0,1.82,0,3.64,0,5.46,.01,4.26,2.94,7.77,7.12,8.56Z"/><path class="cls-1" d="M3.67,26.29s0,0,0,0c-.87,1.08-1.24,2.33-1.11,3.71,.26,2.65,2.47,4.64,5.15,4.64,.09,0,.17,0,.26,0,2.7-.13,4.83-2.37,4.84-5.11,0-1.39-.52-2.69-1.48-3.66-.97-.97-2.25-1.5-3.63-1.5-.44,0-.89,.06-1.33,.17,0,0,0,0,0,0-1.67-2.98-2.2-6.17-1.57-9.48,.5-2.61,1.7-4.93,3.59-6.92,.33-.34,.5-.77,.49-1.21-.01-.41-.19-.8-.51-1.1-.3-.29-.69-.44-1.09-.44-.44,0-.86,.19-1.19,.53C3.38,8.75,1.81,12.14,1.41,15.98c-.37,3.63,.38,7.09,2.24,10.28,0,.01,.01,.02,.02,.03Zm3.96,1.28c1.08,0,1.96,.87,1.96,1.93,0,1.07-.87,1.95-1.94,1.95v.21h0v-.21c-.51,0-1-.2-1.37-.57-.37-.37-.57-.86-.57-1.38,0-1.06,.87-1.93,1.92-1.93Z"/></g></g><g><path class="cls-1" d="M0,123.73H1.95v5.98h7.42s0-5.98,0-5.98h1.95v14.47h-1.95v-6.77H1.95v6.77H0s0-14.47,0-14.47Z"/><path class="cls-1" d="M20.55,127.95c.69,.35,1.22,.81,1.58,1.36,.35,.53,.58,1.15,.7,1.86,.1,.49,.16,1.26,.16,2.33h-7.62c.03,1.07,.28,1.93,.75,2.58s1.19,.97,2.16,.97c.91,0,1.64-.3,2.18-.92,.31-.36,.53-.77,.66-1.23h1.72c-.05,.39-.2,.82-.45,1.3-.26,.48-.54,.87-.86,1.17-.53,.53-1.19,.88-1.97,1.06-.42,.11-.9,.16-1.43,.16-1.29,0-2.39-.48-3.29-1.43-.9-.96-1.35-2.29-1.35-4.02s.45-3.07,1.36-4.13,2.09-1.59,3.55-1.59c.74,0,1.45,.18,2.15,.53Zm.64,4.14c-.07-.77-.24-1.38-.49-1.84-.48-.85-1.28-1.28-2.4-1.28-.8,0-1.48,.29-2.02,.88-.54,.59-.83,1.33-.86,2.24h5.78Z"/><path class="cls-1" d="M30.71,131.81c.4-.05,.67-.22,.81-.51,.08-.16,.12-.38,.12-.68,0-.6-.21-1.04-.64-1.32-.42-.27-1.03-.41-1.82-.41-.91,0-1.56,.25-1.94,.75-.21,.28-.35,.69-.42,1.23h-1.63c.03-1.3,.45-2.21,1.25-2.71s1.73-.76,2.78-.76c1.22,0,2.22,.24,2.98,.71,.76,.47,1.14,1.21,1.14,2.21v6.08c0,.18,.04,.33,.11,.44,.07,.11,.23,.17,.47,.17,.08,0,.17,0,.26-.01s.2-.02,.31-.04v1.31c-.27,.08-.48,.13-.62,.15-.14,.02-.34,.03-.58,.03-.6,0-1.04-.22-1.31-.65-.14-.23-.24-.56-.3-.98-.36,.47-.87,.88-1.53,1.23-.67,.35-1.4,.52-2.2,.52-.96,0-1.75-.3-2.36-.89-.61-.59-.92-1.34-.92-2.23,0-.98,.3-1.74,.9-2.28,.6-.54,1.39-.87,2.37-1l2.79-.36Zm-3.68,4.8c.37,.3,.81,.44,1.31,.44,.61,0,1.21-.14,1.79-.43,.97-.48,1.46-1.26,1.46-2.35v-1.43c-.21,.14-.49,.25-.83,.34-.34,.09-.67,.16-.99,.2l-1.06,.14c-.63,.09-1.11,.22-1.43,.4-.54,.31-.81,.8-.81,1.48,0,.51,.18,.92,.55,1.21Z"/><path class="cls-1" d="M36.24,123.73h1.75v14.47h-1.75v-14.47Z"/><path class="cls-1" d="M40.96,124.71h1.77v2.95h1.66v1.45h-1.66v6.89c0,.37,.12,.61,.37,.74,.14,.07,.36,.11,.68,.11,.08,0,.17,0,.27,0,.1,0,.21-.01,.34-.02v1.4c-.2,.06-.41,.1-.63,.13s-.45,.04-.7,.04c-.82,0-1.37-.21-1.66-.64-.29-.42-.44-.97-.44-1.65v-6.99h-1.41s0-1.45,0-1.45h1.41v-2.95Z"/><path class="cls-1" d="M46.13,123.68h1.75v5.4c.41-.53,.79-.91,1.12-1.12,.56-.37,1.27-.56,2.11-.56,1.51,0,2.53,.54,3.07,1.61,.29,.58,.44,1.4,.44,2.43v6.77h-1.8s0-6.65,0-6.65c0-.77-.1-1.34-.29-1.7-.32-.58-.91-.87-1.79-.87-.72,0-1.38,.25-1.97,.76-.59,.51-.88,1.46-.88,2.87v5.6h-1.75v-14.52Z"/><path class="cls-1" d="M62.9,123.73h2.77l4.1,12.24,4.07-12.24h2.74v14.47h-1.83v-8.54c0-.3,0-.78,.02-1.47,.01-.68,.02-1.42,.02-2.2l-4.07,12.21h-1.91l-4.1-12.21v.44c0,.35,0,.89,.02,1.62,.02,.73,.02,1.26,.02,1.6v8.54h-1.84v-14.47Z"/><path class="cls-1" d="M84.85,131.81c.4-.05,.67-.22,.81-.51,.08-.16,.12-.38,.12-.68,0-.6-.21-1.04-.64-1.32-.42-.27-1.03-.41-1.82-.41-.91,0-1.56,.25-1.94,.75-.21,.28-.35,.69-.42,1.23h-1.63c.03-1.3,.45-2.21,1.25-2.71s1.73-.76,2.78-.76c1.22,0,2.22,.24,2.98,.71,.76,.47,1.14,1.21,1.14,2.21v6.08c0,.18,.04,.33,.11,.44,.07,.11,.23,.17,.47,.17,.08,0,.17,0,.26-.01s.2-.02,.31-.04v1.31c-.27,.08-.48,.13-.62,.15-.14,.02-.34,.03-.58,.03-.6,0-1.04-.22-1.31-.65-.14-.23-.24-.56-.3-.98-.36,.47-.87,.88-1.53,1.23-.67,.35-1.4,.52-2.2,.52-.96,0-1.75-.3-2.36-.89-.61-.59-.92-1.34-.92-2.23,0-.98,.3-1.74,.9-2.28,.6-.54,1.39-.87,2.37-1l2.79-.36Zm-3.68,4.8c.37,.3,.81,.44,1.31,.44,.61,0,1.21-.14,1.79-.43,.97-.48,1.46-1.26,1.46-2.35v-1.43c-.21,.14-.49,.25-.83,.34-.34,.09-.67,.16-.99,.2l-1.06,.14c-.63,.09-1.11,.22-1.43,.4-.54,.31-.81,.8-.81,1.48,0,.51,.18,.92,.55,1.21Z"/><path class="cls-1" d="M90.33,127.65h1.66v1.5c.49-.62,1.01-1.06,1.56-1.33,.55-.27,1.16-.4,1.83-.4,1.48,0,2.47,.52,2.99,1.57,.28,.57,.43,1.39,.43,2.45v6.77h-1.78v-6.65c0-.64-.09-1.16-.28-1.56-.31-.66-.87-.99-1.69-.99-.41,0-.75,.04-1.02,.13-.48,.14-.9,.43-1.26,.87-.29,.35-.48,.71-.57,1.08s-.13,.9-.13,1.59v5.53h-1.75v-10.55Z"/><path class="cls-1" d="M106.96,131.81c.4-.05,.67-.22,.81-.51,.08-.16,.12-.38,.12-.68,0-.6-.21-1.04-.64-1.32-.42-.27-1.03-.41-1.82-.41-.91,0-1.56,.25-1.94,.75-.21,.28-.35,.69-.42,1.23h-1.63c.03-1.3,.45-2.21,1.25-2.71s1.73-.76,2.78-.76c1.22,0,2.22,.24,2.98,.71,.76,.47,1.14,1.21,1.14,2.21v6.08c0,.18,.04,.33,.11,.44,.07,.11,.23,.17,.47,.17,.08,0,.17,0,.26-.01s.2-.02,.31-.04v1.31c-.27,.08-.48,.13-.62,.15-.14,.02-.34,.03-.58,.03-.6,0-1.04-.22-1.31-.65-.14-.23-.24-.56-.3-.98-.36,.47-.87,.88-1.53,1.23-.67,.35-1.4,.52-2.2,.52-.96,0-1.75-.3-2.36-.89-.61-.59-.92-1.34-.92-2.23,0-.98,.3-1.74,.9-2.28,.6-.54,1.39-.87,2.37-1l2.79-.36Zm-3.68,4.8c.37,.3,.81,.44,1.31,.44,.61,0,1.21-.14,1.79-.43,.97-.48,1.46-1.26,1.46-2.35v-1.43c-.21,.14-.49,.25-.83,.34-.34,.09-.67,.16-.99,.2l-1.06,.14c-.63,.09-1.11,.22-1.43,.4-.54,.31-.81,.8-.81,1.48,0,.51,.18,.92,.55,1.21Z"/><path class="cls-1" d="M118.25,128.08c.33,.23,.67,.57,1.01,1.01v-1.33h1.61v9.6c0,1.34-.19,2.4-.58,3.17-.72,1.43-2.09,2.15-4.11,2.15-1.12,0-2.06-.25-2.83-.76s-1.19-1.31-1.28-2.39h1.78c.08,.47,.25,.84,.5,1.09,.39,.39,1.02,.59,1.86,.59,1.34,0,2.22-.48,2.63-1.44,.25-.56,.36-1.57,.34-3.02-.35,.54-.77,.94-1.26,1.2s-1.14,.39-1.95,.39c-1.13,0-2.11-.41-2.96-1.22-.84-.81-1.27-2.15-1.27-4.02,0-1.77,.43-3.15,1.28-4.14s1.88-1.49,3.08-1.49c.82,0,1.53,.2,2.14,.61Zm.21,1.9c-.53-.63-1.21-.95-2.03-.95-1.23,0-2.07,.58-2.52,1.75-.24,.62-.36,1.44-.36,2.45,0,1.19,.24,2.09,.71,2.71,.48,.62,1.11,.93,1.92,.93,1.26,0,2.14-.58,2.65-1.72,.28-.65,.43-1.41,.43-2.28,0-1.31-.27-2.28-.8-2.91Z"/><path class="cls-1" d="M129.98,127.95c.69,.35,1.22,.81,1.58,1.36,.35,.53,.58,1.15,.7,1.86,.1,.49,.16,1.26,.16,2.33h-7.62c.03,1.07,.28,1.93,.75,2.58s1.19,.97,2.16,.97c.91,0,1.64-.3,2.18-.92,.31-.36,.53-.77,.66-1.23h1.72c-.05,.39-.2,.82-.45,1.3-.26,.48-.54,.87-.86,1.17-.53,.53-1.19,.88-1.97,1.06-.42,.11-.9,.16-1.43,.16-1.29,0-2.39-.48-3.29-1.43s-1.35-2.29-1.35-4.02,.45-3.07,1.36-4.13,2.09-1.59,3.55-1.59c.74,0,1.45,.18,2.15,.53Zm.64,4.14c-.07-.77-.24-1.38-.49-1.84-.48-.85-1.28-1.28-2.4-1.28-.8,0-1.48,.29-2.02,.88-.54,.59-.83,1.33-.86,2.24h5.78Z"/><path class="cls-1" d="M134.56,127.65h1.73v1.5c.41-.52,.79-.9,1.13-1.13,.58-.4,1.23-.6,1.96-.6,.83,0,1.49,.21,2,.62,.28,.24,.54,.58,.78,1.04,.39-.56,.84-.98,1.37-1.26,.52-.27,1.11-.41,1.77-.41,1.4,0,2.35,.51,2.85,1.54,.27,.55,.41,1.29,.41,2.23v7.03h-1.82v-7.33c0-.7-.17-1.19-.52-1.45s-.77-.39-1.27-.39c-.69,0-1.28,.23-1.77,.7-.49,.47-.74,1.24-.74,2.34v6.14h-1.78v-6.89c0-.72-.08-1.24-.25-1.57-.27-.49-.76-.74-1.49-.74-.66,0-1.26,.26-1.8,.78-.54,.52-.81,1.46-.81,2.82v5.6h-1.75s0-10.55,0-10.55Z"/><path class="cls-1" d="M157.6,127.95c.69,.35,1.22,.81,1.58,1.36,.35,.53,.58,1.15,.7,1.86,.1,.49,.16,1.26,.16,2.33h-7.62c.03,1.07,.28,1.93,.75,2.58s1.19,.97,2.16,.97c.91,0,1.64-.3,2.18-.92,.31-.36,.53-.77,.66-1.23h1.72c-.05,.39-.2,.82-.45,1.3-.26,.48-.54,.87-.86,1.17-.53,.53-1.19,.88-1.97,1.06-.42,.11-.9,.16-1.43,.16-1.29,0-2.39-.48-3.29-1.43s-1.35-2.29-1.35-4.02,.45-3.07,1.36-4.13,2.09-1.59,3.55-1.59c.74,0,1.45,.18,2.15,.53Zm.64,4.14c-.07-.77-.24-1.38-.49-1.84-.48-.85-1.28-1.28-2.4-1.28-.8,0-1.48,.29-2.02,.88-.54,.59-.83,1.33-.86,2.24h5.78Z"/><path class="cls-1" d="M162.18,127.65h1.66v1.5c.49-.62,1.01-1.06,1.56-1.33,.55-.27,1.16-.4,1.83-.4,1.48,0,2.47,.52,2.99,1.57,.28,.57,.43,1.39,.43,2.45v6.77h-1.78v-6.65c0-.64-.09-1.16-.28-1.56-.31-.66-.87-.99-1.69-.99-.41,0-.75,.04-1.02,.13-.48,.14-.9,.43-1.26,.87-.29,.35-.48,.71-.57,1.08s-.13,.9-.13,1.59v5.53h-1.75v-10.55Z"/><path class="cls-1" d="M173.59,124.71h1.77v2.95h1.66v1.45h-1.66v6.89c0,.37,.12,.61,.37,.74,.14,.07,.36,.11,.68,.11,.08,0,.17,0,.27,0,.1,0,.21-.01,.34-.02v1.4c-.2,.06-.41,.1-.63,.13s-.45,.04-.7,.04c-.82,0-1.37-.21-1.66-.64-.29-.42-.44-.97-.44-1.65v-6.99h-1.41v-1.45h1.41v-2.95Z"/><path class="cls-1" d="M185.78,133.54c.05,.82,.24,1.49,.57,2,.64,.96,1.77,1.44,3.39,1.44,.72,0,1.38-.11,1.98-.32,1.15-.41,1.73-1.14,1.73-2.19,0-.79-.24-1.35-.73-1.68-.49-.33-1.26-.61-2.31-.86l-1.93-.44c-1.26-.29-2.15-.61-2.68-.96-.91-.6-1.36-1.51-1.36-2.71,0-1.3,.44-2.37,1.33-3.2,.89-.83,2.14-1.25,3.77-1.25,1.49,0,2.77,.37,3.81,1.1,1.05,.73,1.57,1.9,1.57,3.51h-1.82c-.1-.77-.3-1.37-.62-1.78-.59-.76-1.59-1.13-3-1.13-1.14,0-1.96,.24-2.46,.73-.5,.49-.75,1.05-.75,1.7,0,.71,.29,1.23,.87,1.56,.38,.21,1.25,.47,2.59,.79l2,.46c.96,.22,1.71,.53,2.23,.92,.91,.68,1.36,1.66,1.36,2.95,0,1.6-.57,2.75-1.72,3.44-1.15,.69-2.48,1.03-4,1.03-1.77,0-3.16-.46-4.16-1.38-1-.91-1.5-2.15-1.48-3.71h1.82Z"/><path class="cls-1" d="M204.04,127.65h1.93c-.25,.68-.79,2.22-1.64,4.63-.63,1.81-1.16,3.29-1.59,4.43-1.01,2.69-1.72,4.34-2.14,4.93-.41,.59-1.13,.89-2.14,.89-.25,0-.44,0-.57-.03-.13-.02-.3-.06-.49-.11v-1.62c.3,.09,.52,.14,.66,.16,.14,.02,.26,.03,.36,.03,.32,0,.56-.05,.71-.16,.15-.11,.28-.24,.38-.4,.03-.05,.15-.32,.35-.81s.35-.85,.44-1.08l-3.84-10.86h1.98l2.79,8.59,2.81-8.59Z"/><path class="cls-1" d="M208.53,134.9c.05,.59,.2,1.04,.44,1.36,.44,.57,1.2,.86,2.29,.86,.65,0,1.22-.14,1.71-.43s.74-.73,.74-1.32c0-.45-.2-.8-.59-1.04-.25-.14-.75-.31-1.49-.5l-1.39-.36c-.89-.22-1.54-.47-1.96-.75-.75-.48-1.13-1.14-1.13-1.99,0-1,.35-1.81,1.06-2.42,.71-.62,1.66-.93,2.86-.93,1.57,0,2.7,.47,3.39,1.4,.43,.59,.64,1.23,.63,1.91h-1.65c-.03-.4-.17-.77-.42-1.09-.4-.47-1.1-.7-2.09-.7-.66,0-1.16,.13-1.5,.38s-.51,.59-.51,1.02c0,.46,.22,.83,.67,1.1,.26,.16,.64,.31,1.15,.43l1.16,.29c1.26,.31,2.1,.61,2.52,.9,.68,.45,1.02,1.17,1.02,2.14s-.35,1.75-1.05,2.43c-.7,.68-1.77,1.03-3.21,1.03-1.55,0-2.64-.36-3.29-1.07-.64-.71-.99-1.59-1.03-2.65h1.68Z"/><path class="cls-1" d="M217.78,124.71h1.77v2.95s1.66,0,1.66,0v1.45s-1.66,0-1.66,0v6.89c0,.37,.12,.61,.37,.74,.14,.07,.36,.11,.68,.11,.08,0,.17,0,.27,0,.1,0,.21-.01,.34-.02v1.4c-.2,.06-.41,.1-.63,.13s-.45,.04-.7,.04c-.82,0-1.37-.21-1.66-.64-.29-.42-.44-.97-.44-1.65v-6.99h-1.41s0-1.45,0-1.45h1.41v-2.95Z"/><path class="cls-1" d="M229.43,127.95c.69,.35,1.22,.81,1.58,1.36,.35,.53,.58,1.15,.7,1.86,.1,.49,.16,1.26,.16,2.33h-7.62c.03,1.07,.28,1.93,.75,2.58s1.19,.97,2.16,.97c.91,0,1.64-.3,2.18-.92,.31-.36,.53-.77,.66-1.23h1.72c-.05,.39-.2,.82-.45,1.3-.26,.48-.54,.87-.86,1.17-.53,.53-1.19,.88-1.97,1.06-.42,.11-.9,.16-1.43,.16-1.29,0-2.39-.48-3.29-1.43s-1.35-2.29-1.35-4.02,.45-3.07,1.36-4.13,2.09-1.59,3.55-1.59c.74,0,1.45,.18,2.15,.53Zm.64,4.14c-.07-.77-.24-1.38-.49-1.84-.48-.85-1.28-1.28-2.4-1.28-.8,0-1.48,.29-2.02,.88-.54,.59-.83,1.33-.86,2.24h5.78Z"/><path class="cls-1" d="M234.01,127.65h1.73v1.5c.41-.52,.79-.9,1.13-1.13,.58-.4,1.23-.6,1.96-.6,.83,0,1.49,.21,2,.62,.28,.24,.54,.58,.78,1.04,.39-.56,.84-.98,1.37-1.26,.52-.27,1.11-.41,1.77-.41,1.4,0,2.35,.51,2.85,1.54,.27,.55,.41,1.29,.41,2.23v7.03h-1.82v-7.33c0-.7-.17-1.19-.52-1.45s-.77-.39-1.27-.39c-.69,0-1.28,.23-1.77,.7-.49,.47-.74,1.24-.74,2.34v6.14h-1.78v-6.89c0-.72-.08-1.24-.25-1.57-.27-.49-.76-.74-1.49-.74-.66,0-1.26,.26-1.8,.78-.54,.52-.81,1.46-.81,2.82v5.6h-1.75v-10.55Z"/></g></g></svg>