<?xml version="1.0" encoding="UTF-8"?><svg id="favicon" xmlns="http://www.w3.org/2000/svg" viewBox="0 0 177.76 177.76"><defs><style>.cls-1{fill:#fff;}.cls-2{fill:#921931;}</style></defs><path class="cls-2" d="M153.07,27.41H88.88l48.95-12.73C123.8,5.4,106.97,0,88.88,0,39.79,0,0,39.79,0,88.88c0,23.85,9.4,45.51,24.7,61.48H88.88l-48.94,12.72c14.03,9.28,30.85,14.68,48.94,14.68,49.09,0,88.88-39.79,88.88-88.88,0-23.85-9.4-45.51-24.69-61.47Zm-20.44,102.95H33.36v-42.46c0-6.36,5.16-11.51,11.52-11.51h.27v42.2h61.79c27.12,0,25.68,1.48,25.68-14.91V59.17H33.36v-11.76h110.82l.21,71.18c0,6.5-5.26,11.77-11.76,11.77Zm-63.39-36v.05h.07v18.65h-.07v-.05h-11.69v-31.78c0-9.04,7.33-16.38,16.38-16.38h46.29v36.64c0,6.36-5.16,11.52-11.52,11.52h-.18v-18.65h-39.28Zm.07-10.59h39.14v-7.57h-39.14v7.57Z"/><path class="cls-1" d="M137.83,14.68l-48.95,12.73h64.19c-4.58-4.79-9.69-9.06-15.24-12.73Z"/><path class="cls-1" d="M39.94,163.08l48.94-12.72H24.7c4.58,4.79,9.69,9.06,15.24,12.72Z"/><g><path class="cls-1" d="M33.36,47.41v11.76h99.26v44.51c0,16.39,1.44,14.91-25.69,14.91H45.15v-42.21h-.26c-6.36,0-11.52,5.16-11.52,11.52v42.45h99.27c6.5,0,11.76-5.27,11.76-11.76l-.21-71.19H33.36Z"/><path class="cls-1" d="M73.93,64.85c-9.05,0-16.38,7.34-16.38,16.38v31.78h11.69v.05h.07v-18.65h-.07v-.05h39.28v18.65h.18c6.36,0,11.52-5.16,11.52-11.52v-36.64h-46.29Zm34.52,18.92h-39.14v-7.57h39.14v7.57Z"/></g></svg>