<?xml version="1.0" encoding="UTF-8"?><svg id="Layer_2" xmlns="http://www.w3.org/2000/svg" viewBox="0 0 246 118.81"><defs><style>.cls-1{fill:#fff;}</style></defs><g id="Layer_4.1"><g><path class="cls-1" d="M39.69,0h27.82s12.9,68.25,12.9,68.25L94.32,0h26.81s2.03,117.37,2.03,117.37h-18.4s-2.17-78.1-2.17-78.1l-13.62,78.1h-16.37s-14.49-78.68-14.49-78.68l-1.74,78.68h-18.69S39.69,0,39.69,0Z"/><path class="cls-1" d="M126.33,90.85v-30.72c0-17.97,11.01-27.97,29.12-27.97,18.55,0,27.82,9.71,27.82,27.97v16.81h-33.62v16.08c0,6.52,2.32,8.98,5.8,8.98s6.09-2.03,6.09-8.11v-8.84h21.73s0,8.11,0,8.11c0,16.95-10.43,25.65-27.82,25.65-18.26,0-29.12-10.14-29.12-27.96Zm35.21-24.92v-8.4c0-6.66-2.61-8.55-6.23-8.55-3.48,0-5.65,2.17-5.65,9.85v7.1s11.88,0,11.88,0Z"/><path class="cls-1" d="M186.45,93.02V58.39c0-15.5,6.52-26.23,19.42-26.23,6.23,0,11.88,2.61,16.52,6.67V0h23.62s0,117.37,0,117.37h-23.62s0-6.52,0-6.52c-5.22,5.07-10.87,7.97-16.52,7.97-12.46,0-19.42-8.69-19.42-25.79Zm35.93,8.55V48.69c-1.88-1.01-4.2-1.88-6.09-1.88-4.35,0-6.09,4.06-6.09,9.13v38.54c0,5.22,1.59,9.27,5.94,9.27,1.59,0,3.91-.72,6.23-2.17Z"/><g><path class="cls-1" d="M33.18,112c-6.67,0-9.13-2.17-9.13-8.11V46.22c-10.29,1.16-18.26,1.88-24.05,2.32v5.51c1.01,0,2.03-.14,2.9-.14,6.96,0,9.56,2.17,9.56,8.26v41.73c0,6.09-2.61,8.11-9.42,8.11H.87v5.36H34.49v-5.36h-1.3Z"/><path class="cls-1" d="M15.71,26.22c.03,.21,.06,.42,.1,.63,.11,.72,.22,1.47,.43,2.19,.71,2.39,2.22,3.84,4.51,4.31,.49,.1,1,.15,1.51,.15,.91,0,1.84-.15,2.85-.47,2.35-.73,4.3-2.22,5.81-4.42,2.66-3.88,3.73-8.26,3.18-13-.52-4.5-2.6-8.24-6.18-11.11-3.1-2.49-6.64-3.76-10.52-3.76-.96,0-1.96,.08-2.96,.23-1.58,.24-3.17,.76-4.73,1.55-.63,.32-.97,.97-.87,1.66,.1,.72,.65,1.27,1.34,1.34,.05,0,.11,0,.17,0,.3,0,.62-.07,.9-.21,1.97-.93,3.95-1.4,5.9-1.4,.49,0,.98,.03,1.47,.09,5.4,.64,9.19,3.4,11.26,8.21,2.11,4.91,1.54,9.85-1.69,14.7-1.27,1.91-3.03,3.05-5.22,3.39-.27,.04-.53,.06-.77,.06-.78,0-1.39-.22-1.85-.66-.9-.86-1.38-2.03-1.43-3.49,3.95-.72,6.92-4.1,7.06-8.06,.07-1.87,.05-3.77,.03-5.6,0-.66-.01-1.32-.01-1.98,0-.87-.69-1.56-1.57-1.57-.6,0-1.21,0-1.81,0s-1.19,0-1.78,0c-.89,0-1.58,.72-1.58,1.61,0,.87,.71,1.57,1.6,1.59,.27,0,.54,0,.81,0h.52s.51,0,.51,0h.11v5.31s0,.13,0,.13c0,.14,0,.28-.01,.42-.04,.33-.07,.6-.13,.87-.55,2.46-2.81,4.24-5.39,4.24-.09,0-.18,0-.26,0-2.61-.12-4.88-2.22-5.08-4.68-.12-1.52-.11-3.08-.09-4.59,0-.56,.01-1.12,.01-1.69h.28s.67,0,.67,0h.86c.51,0,.97-.18,1.28-.5,.29-.29,.44-.69,.44-1.12-.01-.91-.74-1.57-1.72-1.58h-1.61s-1.68,0-1.68,0c-1.09,0-1.74,.66-1.74,1.75v1.44c0,1.82,0,3.64,0,5.46,.01,4.26,2.94,7.77,7.12,8.56Z"/><path class="cls-1" d="M2.67,26.29s0,0,0,0c-.87,1.08-1.24,2.33-1.11,3.71,.26,2.65,2.47,4.64,5.15,4.64,.09,0,.17,0,.26,0,2.7-.13,4.83-2.37,4.84-5.11,0-1.39-.52-2.69-1.48-3.66-.97-.97-2.25-1.5-3.63-1.5-.44,0-.89,.06-1.33,.17,0,0,0,0,0,0-1.67-2.98-2.2-6.17-1.57-9.48,.5-2.61,1.7-4.93,3.59-6.92,.33-.34,.5-.77,.49-1.21-.01-.41-.19-.8-.51-1.1-.3-.29-.69-.44-1.09-.44-.44,0-.86,.19-1.19,.53C2.38,8.75,.81,12.14,.41,15.98c-.37,3.63,.38,7.09,2.24,10.28,0,.01,.01,.02,.02,.03Zm3.96,1.28c1.08,0,1.96,.87,1.96,1.93,0,1.07-.87,1.95-1.94,1.95v.21h0v-.21c-.51,0-1-.2-1.37-.57-.37-.37-.57-.86-.57-1.38,0-1.06,.87-1.93,1.92-1.93Z"/></g></g></g></svg>